<?xml version="1.0" encoding="UTF-8" standalone="no"?>
<!DOCTYPE svg PUBLIC "-//W3C//DTD SVG 1.1//EN" "http://www.w3.org/Graphics/SVG/1.1/DTD/svg11.dtd">
<svg width="100%" height="100%" viewBox="0 0 1080 1080" version="1.1" xmlns="http://www.w3.org/2000/svg" xmlns:xlink="http://www.w3.org/1999/xlink" xml:space="preserve" xmlns:serif="http://www.serif.com/" style="fill-rule:evenodd;clip-rule:evenodd;stroke-linejoin:round;stroke-miterlimit:2;">
    <g transform="matrix(1,0,0,1,-19.4638,-1174)">
        <g id="New-Logo" serif:id="New Logo" transform="matrix(1,0,0,1,19.4638,1174)">
            <rect x="0" y="0" width="1080" height="1080" style="fill:none;"/>
            <g transform="matrix(0.744472,0,0,0.744472,96.2018,201.658)">
                <path d="M330,313.432C330,306.014 323.986,300 316.568,300C299.562,300 270.438,300 253.432,300C246.014,300 240,306.014 240,313.432C240,352.744 240,467.256 240,506.568C240,513.986 246.014,520 253.432,520C270.438,520 299.562,520 316.568,520C323.986,520 330,513.986 330,506.568C330,467.256 330,352.744 330,313.432Z" style="fill:white;"/>
            </g>
            <g transform="matrix(0.744472,0,0,0.744472,83.1735,201.658)">
                <path d="M550,313.432C550,306.014 543.986,300 536.568,300C502.42,300 412.58,300 378.432,300C371.014,300 365,306.014 365,313.432C365,352.744 365,467.256 365,506.568C365,513.986 371.014,520 378.432,520C412.58,520 502.42,520 536.568,520C543.986,520 550,513.986 550,506.568C550,494.164 550,475.836 550,463.432C550,456.014 543.986,450 536.568,450C518.488,450 486.512,450 468.432,450C461.014,450 455,443.986 455,436.568C455,421.797 455,398.203 455,383.432C455,376.014 461.014,370 468.432,370C486.512,370 518.488,370 536.568,370C543.986,370 550,363.986 550,356.568C550,344.164 550,325.836 550,313.432Z" style="fill:white;"/>
            </g>
            <g transform="matrix(0.744472,0,0,0.744472,73.8676,201.658)">
                <path d="M765,313.432C765,306.014 758.986,300 751.568,300C717.42,300 627.58,300 593.432,300C586.014,300 580,306.014 580,313.432C580,352.744 580,467.256 580,506.568C580,513.986 586.014,520 593.432,520C627.58,520 717.42,520 751.568,520C758.986,520 765,513.986 765,506.568C765,494.164 765,475.836 765,463.432C765,456.014 758.986,450 751.568,450C730.143,450 689.202,450 675,450C672.238,450 670,447.762 670,445.001C670,445 670,445 670,444.999C670,442.238 672.238,440 675,440C685.644,440 710.857,440 726.568,440C733.986,440 740,433.986 740,426.568C740,416.687 740,403.313 740,393.432C740,386.014 733.986,380 726.568,380C710.857,380 685.644,380 675,380C672.238,380 670,377.762 670,375.001C670,375 670,375 670,374.999C670,372.238 672.238,370 675,370C689.202,370 730.143,370 751.568,370C758.986,370 765,363.986 765,356.568C765,344.164 765,325.836 765,313.432Z" style="fill:white;"/>
            </g>
            <g transform="matrix(0.744472,0,0,0.744472,68.098,197.936)">
                <path d="M891.32,525C893.622,525 895.83,525.914 897.458,527.542C899.086,529.17 900,531.378 900,533.68C900,533.681 900,533.683 900,533.684C900,535.986 899.086,538.194 897.458,539.822C895.83,541.45 893.622,542.364 891.32,542.364C823.192,542.364 374.847,542.364 291.182,542.364C287.62,542.364 284.203,543.779 281.684,546.299C279.165,548.818 277.75,552.234 277.75,555.797C277.75,568.584 277.75,587.724 277.75,600.512C277.75,604.074 279.165,607.491 281.684,610.01C284.203,612.529 287.62,613.944 291.182,613.944C380.462,613.944 887.288,613.944 976.568,613.944C980.13,613.944 983.547,612.529 986.066,610.01C988.585,607.491 990,604.074 990,600.512C990,549.662 990,369.282 990,318.432C990,311.014 983.986,305 976.568,305C959.562,305 930.438,305 913.432,305C906.014,305 900,311.014 900,318.432C900,344.598 900,401.859 900,425.001C900,430.523 895.523,435 890.001,435C890,435 890,435 889.999,435C884.477,435 880,430.523 880,425.001C880,401.859 880,344.598 880,318.432C880,311.014 873.986,305 866.568,305C849.562,305 820.438,305 803.432,305C796.014,305 790,311.014 790,318.432C790,357.744 790,472.256 790,511.568C790,515.13 791.415,518.547 793.934,521.066C796.453,523.585 799.87,525 803.432,525C826.305,525 872.194,525 891.32,525Z" style="fill:white;"/>
            </g>
        </g>
    </g>
</svg>
